# xmcd
#
# Track frame offsets: 
#        182
#        13485
#        27517
#        42605
#        54667
#        71165
#        84922
#        97095
#        112740
#        125980
#        137980
#        154005
#        167207
#        182165
#        195192
#        213895
#        228117
#        243737
#        256330
#        273717
#        289215
#        303760
#        317442
#        331570
#        344105
#
# Disc length: 4750 seconds
#
# Revision: 9
# Processed by: cddbd v1.5.2PL0 Copyright (c) Steve Scherf et al.
# Submitted via: ExactAudioCopyFreeDBPlugin 1.0
#
DISCID=77128c19
DTITLE=Various Artist - Can You Dig It?:  The '70s Soul Experience [R
DTITLE=hino box set]
DYEAR=2001
DGENRE=Soul
TTITLE0=The Friends of Distinction - Grazing in the Grass
TTITLE1=The Winstons - Color Him Father
TTITLE2=Eddie Holman - Hey There Lonely Girl
TTITLE3=The Glass House - Crumbs Off the Table
TTITLE4=Brook Benton - Rainy Night in Georgia
TTITLE5=Sly and the Family Stone - Everybody is a Star
TTITLE6=The Chairmen of the Board - Give Me Just a Little More Time
TTITLE7=The Delfonics - Didn't I (Blow Your Mind This Time)
TTITLE8=The Originals - The Bells
TTITLE9=Tyrone Davis - Turn Back the Hands of Time
TTITLE10=The Moments - Love on a Two-Way Street
TTITLE11=Freda Payne - Band of Gold
TTITLE12=The 5 Stairsteps - O-o-h Child
TTITLE13=The Flaming Ember - Westbound #9
TTITLE14=The Three Degrees - Maybe
TTITLE15=The Lost Generation - The Sly, Slick, and the Wicked
TTITLE16=Edwin Starr - War
TTITLE17=100 Proof Aged in Soul - Somebody's Been Sleeping
TTITLE18=Charles Wright and The Watts 103rd Street Rhythm Band - Express
TTITLE18=Yourself
TTITLE19=Jackie Moore - Precious, Precious
TTITLE20=The Beginning of the End - Funky Nassau, Part I
TTITLE21=King Floyd - Groove Me
TTITLE22=The Fuzz - I Love You for All Seasons
TTITLE23=The Honey Cone - Want Ads
TTITLE24=Paul Humphrey and His Cool Aid Chemists - Cool Aid
EXTD=
EXTT0=
EXTT1=
EXTT2=
EXTT3=
EXTT4=
EXTT5=
EXTT6=
EXTT7=
EXTT8=
EXTT9=
EXTT10=
EXTT11=
EXTT12=
EXTT13=
EXTT14=
EXTT15=
EXTT16=
EXTT17=
EXTT18=
EXTT19=
EXTT20=
EXTT21=
EXTT22=
EXTT23=
EXTT24=
PLAYORDER=
